<?xml version="1.0" standalone="no"?>
<!DOCTYPE svg PUBLIC "-//W3C//DTD SVG 20010904//EN"
 "http://www.w3.org/TR/2001/REC-SVG-20010904/DTD/svg10.dtd">
<svg version="1.0" xmlns="http://www.w3.org/2000/svg"
 width="700.000000pt" height="700.000000pt" viewBox="0 0 700.000000 700.000000"
 preserveAspectRatio="xMidYMid meet">
<metadata>
Created by potrace 1.11, written by Peter Selinger 2001-2013
</metadata>
<g transform="translate(0.000000,700.000000) scale(0.100000,-0.100000)"
fill="#000000" stroke="none">
<path d="M2335 6980 c-16 -18 -17 -182 -17 -3480 -1 -3309 0 -3461 17 -3480
18 -20 36 -20 1120 -20 1055 0 1103 1 1118 18 16 17 17 273 17 3484 0 3344 -1
3465 -18 3481 -17 16 -109 17 -1119 17 -1079 0 -1100 0 -1118 -20z"/>
<path d="M0 4083 l0 -2333 861 0 c763 0 865 2 894 16 69 32 64 -161 62 2364
l-2 2285 -907 1 -908 1 0 -2334z"/>
<path d="M5255 4950 c-11 -4 -31 -20 -45 -35 l-25 -27 -2 -2298 -2 -2298 910
0 909 0 0 2333 0 2333 -862 0 c-475 0 -872 -4 -883 -8z"/>
</g>
</svg>
