<svg className={`${className} ${hover}`} fill="currentColor" view-box="0 0 156 43">
    <path
        d="M9.80114 36c6.64776 0 10.86646-4.0909 10.86646-10.9091S16.4489 14.1818 9.71591 14.1818H1.40625V36h8.39489zm-2.47159-5.0284V19.2102h2.08806c3.40909 0 5.28409 1.321 5.28409 5.8807s-1.875 5.8807-5.11363 5.8807H7.32955zm24.00475 5.3267c4.5384 0 7.4574-2.1733 8.0114-5.5824h-5.3693c-.3409.9269-1.3104 1.4489-2.5142 1.4489-1.7472 0-2.7699-1.1506-2.7699-2.7273v-.2557h10.6534v-1.3636c0-5.2095-3.196-8.3949-8.1392-8.3949-5.071 0-8.3097 3.3665-8.3097 8.4375 0 5.2947 3.1961 8.4375 8.4375 8.4375zm-2.642-10.3551c.032-1.4169 1.2038-2.3864 2.642-2.3864 1.4596 0 2.5675.9801 2.5995 2.3864h-5.2415zm18.9338-11.7614h-5.8807V36h5.8807V14.1818zM50.6223 36h5.8807V19.6364h-5.8807V36zm2.9404-18.0682c1.598 0 2.8977-1.2038 2.8977-2.6846 0-1.4809-1.2997-2.6847-2.8977-2.6847-1.598 0-2.8977 1.2038-2.8977 2.6847 0 1.4808 1.2997 2.6846 2.8977 2.6846zM59.4141 36h5.838v-2.6847h.1279c.6818 1.662 2.2585 2.8978 4.5596 2.8978 3.4943 0 6.4347-2.7273 6.4347-8.3949 0-5.9233-3.1534-8.3949-6.3921-8.3949-2.4289 0-3.963 1.4062-4.6022 3.0682h-.0853v-8.3097h-5.8806V36zm5.7528-8.1818c0-2.429.9801-3.8779 2.5994-3.8779 1.6194 0 2.5569 1.4489 2.5569 3.8779s-.9375 3.8778-2.5569 3.8778c-1.6193 0-2.5994-1.4915-2.5994-3.8778zm21.5092 8.4801c4.5384 0 7.4574-2.1733 8.0114-5.5824h-5.3693c-.3409.9269-1.3104 1.4489-2.5142 1.4489-1.7472 0-2.7699-1.1506-2.7699-2.7273v-.2557h10.6534v-1.3636c0-5.2095-3.196-8.3949-8.1392-8.3949-5.071 0-8.3097 3.3665-8.3097 8.4375 0 5.2947 3.1961 8.4375 8.4375 8.4375zm-2.642-10.3551c.032-1.4169 1.2038-2.3864 2.642-2.3864 1.4596 0 2.5675.9801 2.5995 2.3864h-5.2415zM97.0872 36h5.8808v-8.5227c0-1.875 1.289-3.1108 3.025-3.1108.608 0 1.588.0959 2.174.2983V19.647c-.469-.1385-.98-.2237-1.492-.2237-1.747 0-3.111 1.0227-3.707 3.3239h-.171v-3.1108h-5.7098V36zm16.8058.2557c2.131 0 3.739-.7245 4.73-2.5568h.128V36h5.497V24.7926c0-3.0256-2.866-5.3693-7.543-5.3693-4.889 0-7.297 2.5568-7.5 5.5398h5.412c.139-1.0121.885-1.4915 2.003-1.4915 1.023 0 1.747.4687 1.747 1.321v.0426c0 .9482-1.044 1.2465-3.792 1.4489-3.377.245-6.009 1.6087-6.009 5.1989 0 3.2599 2.195 4.7727 5.327 4.7727zm1.918-3.7074c-1.002 0-1.705-.4901-1.705-1.4063 0-.8416.597-1.4914 1.96-1.7045.938-.1491 1.726-.3409 2.344-.5966v1.3636c0 1.4915-1.268 2.3438-2.599 2.3438zm21.005-12.9119h-2.812v-3.9205h-5.881v3.9205h-2.088v4.2613h2.088v7.3935c-.042 3.4304 2.078 5.1669 6.137 4.9432 1.331-.0746 2.322-.3516 2.855-.5114l-.853-4.1335c-.223.0533-.799.1704-1.15.1704-.767 0-1.108-.3409-1.108-1.0227v-6.8395h2.812v-4.2613zm10.065 16.6619c4.539 0 7.458-2.1733 8.012-5.5824h-5.37c-.341.9269-1.31 1.4489-2.514 1.4489-1.747 0-2.77-1.1506-2.77-2.7273v-.2557h10.654v-1.3636c0-5.2095-3.196-8.3949-8.14-8.3949-5.071 0-8.309 3.3665-8.309 8.4375 0 5.2947 3.196 8.4375 8.437 8.4375zm-2.642-10.3551c.032-1.4169 1.204-2.3864 2.642-2.3864 1.46 0 2.568.9801 2.6 2.3864h-5.242zM68.4326 7.53608l1.5469 2.25883 1.547 2.25879 2.6807-5.14984-5.7746.63222z"
        fill="currentColor" />
    <path
        d="M54 14.8629l4.3291-3.3473 4.9636 3.0179 6.6868-4.73859m0 0l-1.5469-2.25883 5.7746-.63222-2.6807 5.14984-1.547-2.25879z"
        stroke="currentColor" stroke-width="3" />
</svg>